<?xml version="1.0" standalone="no"?>
<!DOCTYPE svg PUBLIC "-//W3C//DTD SVG 20010904//EN"
 "http://www.w3.org/TR/2001/REC-SVG-20010904/DTD/svg10.dtd">
<svg version="1.0" xmlns="http://www.w3.org/2000/svg"
 width="40" height="40" viewBox="0 0 512.000000 512.000000"
 preserveAspectRatio="xMidYMid meet">

<g transform="translate(0.000000,512.000000) scale(0.0625,-0.0625)"
fill="#9B9B9B" stroke="none">
<path d="M2820 5098 c-32 -16 -195 -171 -572 -548 -467 -465 -530 -532 -554
-584 -68 -150 -5 -324 145 -398 36 -18 63 -22 126 -22 47 0 90 5 104 13 22 12
29 8 132 -95 60 -60 109 -113 109 -118 0 -4 -26 -36 -58 -70 -85 -91 -114
-208 -77 -306 l13 -35 -1053 -1055 c-1135 -1137 -1091 -1089 -1116 -1224 -49
-265 192 -506 457 -457 135 25 87 -19 1224 1116 l1055 1053 35 -13 c48 -18
126 -18 188 0 38 12 69 32 116 75 35 33 68 60 72 60 5 0 58 -49 118 -109 103
-103 107 -110 95 -132 -8 -14 -13 -57 -13 -104 0 -63 4 -90 22 -126 74 -150
248 -213 398 -145 52 24 119 87 585 554 587 589 574 573 574 702 -1 173 -125
300 -293 300 -30 0 -72 -5 -94 -12 l-39 -12 -645 645 c-576 576 -644 647 -639
669 17 72 17 159 1 208 -22 66 -87 139 -151 168 -70 33 -199 34 -265 2z m173
-179 c37 -19 57 -52 57 -94 0 -39 -8 -47 -507 -548 -280 -280 -521 -515 -537
-524 -73 -38 -164 38 -135 115 11 30 1012 1038 1044 1052 28 12 53 12 78 -1z
m739 -1006 c346 -346 628 -632 628 -638 0 -6 -189 -199 -420 -430 l-420 -420
-638 638 -637 637 282 282 283 283 403 -403 c395 -394 404 -402 443 -402 42 0
74 20 94 59 29 56 20 66 -395 481 -217 217 -395 399 -395 405 0 13 122 135
135 135 5 0 292 -282 637 -627z m974 -701 c12 -9 27 -28 34 -41 29 -57 27 -59
-512 -598 -282 -282 -525 -517 -540 -522 -77 -29 -153 62 -115 135 9 16 244
257 524 537 501 499 509 507 548 507 23 0 49 -8 61 -18z m-1961 -293 l280
-280 -53 -50 c-65 -60 -99 -64 -158 -20 -46 34 -414 404 -438 441 -29 44 -21
83 30 139 25 28 49 51 52 51 4 0 133 -126 287 -281z m-1162 -1442 c-560 -560
-1038 -1033 -1063 -1050 -39 -28 -53 -32 -111 -32 -77 0 -122 24 -166 90 -38
55 -40 153 -4 205 13 19 486 497 1050 1062 l1026 1028 142 -142 143 -143
-1017 -1018z"/>
<path d="M3877 3344 c-29 -29 -36 -56 -25 -99 11 -41 45 -65 95 -65 84 0 124
100 64 161 -39 39 -97 41 -134 3z"/>
<path d="M2735 1192 c-94 -32 -162 -104 -191 -198 -9 -31 -14 -95 -14 -183
l-1 -136 -72 -34 c-147 -71 -276 -239 -312 -407 -24 -114 -21 -150 19 -190
l34 -34 1435 2 1435 3 26 24 c24 22 26 32 26 100 -1 98 -13 149 -58 241 -50
102 -159 212 -259 260 l-71 35 -4 155 c-3 140 -5 160 -27 204 -31 63 -90 122
-150 150 -46 21 -50 21 -906 23 -795 2 -864 1 -910 -15z m1762 -215 c27 -26
28 -32 31 -147 l4 -120 -901 0 -901 0 0 114 c0 101 2 116 21 140 12 15 31 32
43 36 11 5 393 8 848 7 l828 -2 27 -28z m153 -484 c107 -37 199 -122 244 -225
l26 -58 -1290 0 -1290 0 10 25 c50 132 149 225 279 261 65 18 1968 15 2021 -3z"/>
</g>
</svg>
