<svg width="16" height="17" viewBox="0 0 16 17" fill="none" xmlns="http://www.w3.org/2000/svg">
<path d="M8 8.44141H8.5H11.5C11.6326 8.44141 11.7598 8.49408 11.8536 8.58785C11.9473 8.68162 12 8.8088 12 8.94141C12 9.07401 11.9473 9.20119 11.8536 9.29496C11.7598 9.38873 11.6326 9.44141 11.5 9.44141H8.5L8 9.44141L7.5 9.44141H4.5C4.36739 9.44141 4.24021 9.38873 4.14645 9.29496C4.05268 9.20119 4 9.07401 4 8.94141C4 8.8088 4.05268 8.68162 4.14645 8.58785C4.24021 8.49408 4.36739 8.44141 4.5 8.44141H7.5H8Z" fill="#252525"/>
<path d="M8 8.44141H8.5H11.5C11.6326 8.44141 11.7598 8.49408 11.8536 8.58785C11.9473 8.68162 12 8.8088 12 8.94141C12 9.07401 11.9473 9.20119 11.8536 9.29496C11.7598 9.38873 11.6326 9.44141 11.5 9.44141H8.5L8 9.44141L7.5 9.44141H4.5C4.36739 9.44141 4.24021 9.38873 4.14645 9.29496C4.05268 9.20119 4 9.07401 4 8.94141C4 8.8088 4.05268 8.68162 4.14645 8.58785C4.24021 8.49408 4.36739 8.44141 4.5 8.44141H7.5H8Z" stroke="#252525"/>
</svg>
