<svg width="16" height="17" viewBox="0 0 16 17" fill="none" xmlns="http://www.w3.org/2000/svg">
<path d="M8 4.94141C8.13261 4.94141 8.25979 4.99408 8.35355 5.08785C8.44732 5.18162 8.5 5.3088 8.5 5.44141V8.44141H11.5C11.6326 8.44141 11.7598 8.49408 11.8536 8.58785C11.9473 8.68162 12 8.8088 12 8.94141C12 9.07401 11.9473 9.20119 11.8536 9.29496C11.7598 9.38873 11.6326 9.44141 11.5 9.44141H8.5V12.4414C8.5 12.574 8.44732 12.7012 8.35355 12.795C8.25979 12.8887 8.13261 12.9414 8 12.9414C7.86739 12.9414 7.74021 12.8887 7.64645 12.795C7.55268 12.7012 7.5 12.574 7.5 12.4414V9.44141H4.5C4.36739 9.44141 4.24021 9.38873 4.14645 9.29496C4.05268 9.20119 4 9.07401 4 8.94141C4 8.8088 4.05268 8.68162 4.14645 8.58785C4.24021 8.49408 4.36739 8.44141 4.5 8.44141H7.5V5.44141C7.5 5.3088 7.55268 5.18162 7.64645 5.08785C7.74021 4.99408 7.86739 4.94141 8 4.94141Z" fill="#252525"/>
<path d="M8 4.94141C8.13261 4.94141 8.25979 4.99408 8.35355 5.08785C8.44732 5.18162 8.5 5.3088 8.5 5.44141V8.44141H11.5C11.6326 8.44141 11.7598 8.49408 11.8536 8.58785C11.9473 8.68162 12 8.8088 12 8.94141C12 9.07401 11.9473 9.20119 11.8536 9.29496C11.7598 9.38873 11.6326 9.44141 11.5 9.44141H8.5V12.4414C8.5 12.574 8.44732 12.7012 8.35355 12.795C8.25979 12.8887 8.13261 12.9414 8 12.9414C7.86739 12.9414 7.74021 12.8887 7.64645 12.795C7.55268 12.7012 7.5 12.574 7.5 12.4414V9.44141H4.5C4.36739 9.44141 4.24021 9.38873 4.14645 9.29496C4.05268 9.20119 4 9.07401 4 8.94141C4 8.8088 4.05268 8.68162 4.14645 8.58785C4.24021 8.49408 4.36739 8.44141 4.5 8.44141H7.5V5.44141C7.5 5.3088 7.55268 5.18162 7.64645 5.08785C7.74021 4.99408 7.86739 4.94141 8 4.94141Z" stroke="#252525"/>
</svg>
